<?xml version="1.0" encoding="UTF-8"?>
<svg xmlns="http://www.w3.org/2000/svg" viewBox="0 0 1600 900" preserveAspectRatio="xMidYMax slice">
  <defs>
    <linearGradient id="sky" x1="0" y1="0" x2="0" y2="1">
      <stop offset="0" stop-color="#161f0d"></stop>
      <stop offset="0.55" stop-color="#243312"></stop>
      <stop offset="1" stop-color="#31431c"></stop>
    </linearGradient>
    <radialGradient id="glow" cx="0.5" cy="1.05" r="0.9">
      <stop offset="0" stop-color="#B88E67" stop-opacity="0.30"></stop>
      <stop offset="0.45" stop-color="#B88E67" stop-opacity="0.10"></stop>
      <stop offset="1" stop-color="#B88E67" stop-opacity="0"></stop>
    </radialGradient>
    <linearGradient id="bfar" x1="0" y1="0" x2="0" y2="1">
      <stop offset="0" stop-color="#1b260f"></stop>
      <stop offset="1" stop-color="#202c12"></stop>
    </linearGradient>
    <linearGradient id="bnear" x1="0" y1="0" x2="0" y2="1">
      <stop offset="0" stop-color="#141c0a"></stop>
      <stop offset="1" stop-color="#1a240d"></stop>
    </linearGradient>
    <g id="win">
      <rect width="14" height="20" rx="1.5"></rect>
    </g>
  </defs>
  <rect width="1600" height="900" fill="url(#sky)"></rect>
  <rect width="1600" height="900" fill="url(#glow)"></rect>
  <g fill="#f3e2c2" opacity="0.5">
    <circle cx="140" cy="120" r="1.6"></circle>
    <circle cx="320" cy="70" r="1.2"></circle>
    <circle cx="510" cy="150" r="1.4"></circle>
    <circle cx="705" cy="60" r="1.2"></circle>
    <circle cx="890" cy="130" r="1.6"></circle>
    <circle cx="1080" cy="80" r="1.2"></circle>
    <circle cx="1260" cy="140" r="1.5"></circle>
    <circle cx="1430" cy="90" r="1.2"></circle>
    <circle cx="1540" cy="170" r="1.3"></circle>
    <circle cx="230" cy="210" r="1.1"></circle>
    <circle cx="980" cy="200" r="1.1"></circle>
    <circle cx="1350" cy="220" r="1.1"></circle>
  </g>
  <g fill="url(#bfar)" opacity="0.85">
    <rect x="-20" y="430" width="150" height="470"></rect>
    <rect x="150" y="380" width="120" height="520"></rect>
    <rect x="300" y="460" width="140" height="440"></rect>
    <rect x="470" y="350" width="110" height="550"></rect>
    <rect x="610" y="430" width="130" height="470"></rect>
    <rect x="775" y="330" width="120" height="570"></rect>
    <rect x="930" y="410" width="140" height="490"></rect>
    <rect x="1100" y="360" width="115" height="540"></rect>
    <rect x="1250" y="440" width="130" height="460"></rect>
    <rect x="1410" y="380" width="120" height="520"></rect>
    <rect x="1550" y="450" width="80" height="450"></rect>
  </g>
  <g fill="#B88E67" opacity="0.10">
    <rect x="170" y="400" width="80" height="8"></rect>
    <rect x="490" y="370" width="70" height="8"></rect>
    <rect x="795" y="350" width="80" height="8"></rect>
    <rect x="1120" y="380" width="75" height="8"></rect>
    <rect x="1430" y="400" width="80" height="8"></rect>
  </g>
  <g fill="url(#bnear)">
    <rect x="-30" y="560" width="220" height="340"></rect>
    <rect x="230" y="500" width="190" height="400"></rect>
    <rect x="460" y="590" width="200" height="310"></rect>
    <rect x="700" y="470" width="180" height="430"></rect>
    <rect x="920" y="560" width="210" height="340"></rect>
    <rect x="1170" y="500" width="180" height="400"></rect>
    <rect x="1390" y="580" width="240" height="320"></rect>
  </g>
  <g fill="#e8c9a2" opacity="0.55">
    <use href="#win" x="20" y="600"></use>
    <use href="#win" x="60" y="600"></use>
    <use href="#win" x="100" y="640"></use>
    <use href="#win" x="20" y="680"></use>
    <use href="#win" x="140" y="680"></use>
    <use href="#win" x="60" y="720"></use>
    <use href="#win" x="270" y="540"></use>
    <use href="#win" x="310" y="540"></use>
    <use href="#win" x="350" y="580"></use>
    <use href="#win" x="270" y="620"></use>
    <use href="#win" x="390" y="620"></use>
    <use href="#win" x="310" y="660"></use>
    <use href="#win" x="350" y="700"></use>
    <use href="#win" x="270" y="740"></use>
    <use href="#win" x="500" y="630"></use>
    <use href="#win" x="540" y="630"></use>
    <use href="#win" x="580" y="670"></use>
    <use href="#win" x="500" y="710"></use>
    <use href="#win" x="620" y="710"></use>
    <use href="#win" x="740" y="510"></use>
    <use href="#win" x="780" y="510"></use>
    <use href="#win" x="820" y="550"></use>
    <use href="#win" x="740" y="590"></use>
    <use href="#win" x="820" y="630"></use>
    <use href="#win" x="780" y="670"></use>
    <use href="#win" x="740" y="710"></use>
    <use href="#win" x="960" y="600"></use>
    <use href="#win" x="1000" y="600"></use>
    <use href="#win" x="1040" y="640"></use>
    <use href="#win" x="960" y="680"></use>
    <use href="#win" x="1080" y="680"></use>
    <use href="#win" x="1000" y="720"></use>
    <use href="#win" x="1210" y="540"></use>
    <use href="#win" x="1250" y="540"></use>
    <use href="#win" x="1290" y="580"></use>
    <use href="#win" x="1210" y="620"></use>
    <use href="#win" x="1290" y="660"></use>
    <use href="#win" x="1250" y="700"></use>
    <use href="#win" x="1430" y="620"></use>
    <use href="#win" x="1470" y="620"></use>
    <use href="#win" x="1510" y="660"></use>
    <use href="#win" x="1430" y="700"></use>
    <use href="#win" x="1550" y="700"></use>
  </g>
  <g stroke="#B88E67" stroke-width="2.5" opacity="0.35" fill="none">
    <line x1="230" y1="500" x2="420" y2="500"></line>
    <line x1="700" y1="470" x2="880" y2="470"></line>
    <line x1="1170" y1="500" x2="1350" y2="500"></line>
  </g>
  <rect y="640" width="1600" height="260" fill="#141c0a" opacity="0.25"></rect>
</svg>
